<svg width="2827" height="595" viewBox="0 0 2827 595" fill="none" xmlns="http://www.w3.org/2000/svg">
<g clip-path="url(#clip0_145_2)">
<mask id="mask0_145_2" style="mask-type:luminance" maskUnits="userSpaceOnUse" x="0" y="0" width="595" height="595">
<path d="M297.5 595C461.805 595 595 461.805 595 297.5C595 133.195 461.805 0 297.5 0C133.195 0 0 133.195 0 297.5C0 461.805 133.195 595 297.5 595Z" fill="white"/>
</mask>
<g mask="url(#mask0_145_2)">
<path d="M595 0H0V595H595V0Z" fill="url(#paint0_linear_145_2)"/>
<path d="M0 429.931C148.75 352.65 446.25 460.727 595 391V639.11H0V429.931Z" fill="#F4E9D8"/>
<path d="M0 410.931C148.75 333.65 446.25 441.727 595 372V449.861C446.25 480.657 148.75 372.581 0 449.861V410.931Z" fill="white"/>
<path d="M595 247.29C446.25 187.163 148.75 271.25 0 217V277.579C148.75 301.539 446.25 217.452 595 277.579V247.29Z" fill="white"/>
</g>
</g>
<path d="M2685.62 490.2C2654.02 490.2 2625.82 483.8 2601.02 471C2576.62 457.8 2557.42 439.6 2543.42 416.4C2529.42 393.2 2522.42 367 2522.42 337.8C2522.42 308.6 2529.22 282.6 2542.82 259.8C2556.82 236.6 2575.62 218.4 2599.22 205.2C2622.82 192 2649.42 185.4 2679.02 185.4C2707.82 185.4 2733.22 191.6 2755.22 204C2777.22 216.4 2794.42 233.6 2806.82 255.6C2819.62 277.6 2826.02 302.8 2826.02 331.2C2826.02 336.4 2825.62 342 2824.82 348C2824.42 353.6 2823.42 360.2 2821.82 367.8L2570.42 368.4V305.4L2782.82 304.8L2743.22 331.2C2742.82 314.4 2740.22 300.6 2735.42 289.8C2730.62 278.6 2723.42 270.2 2713.82 264.6C2704.62 258.6 2693.22 255.6 2679.62 255.6C2665.22 255.6 2652.62 259 2641.82 265.8C2631.42 272.2 2623.22 281.4 2617.22 293.4C2611.62 305.4 2608.82 320 2608.82 337.2C2608.82 354.4 2611.82 369.2 2617.82 381.6C2624.22 393.6 2633.02 403 2644.22 409.8C2655.82 416.2 2669.42 419.4 2685.02 419.4C2699.42 419.4 2734 413 2746.5 413C2759 413 2751.62 427.4 2766.5 423.5C2781.38 419.6 2805.02 439.8 2805.02 439.8C2790.62 456.6 2773.22 469.2 2752.82 477.6C2732.42 486 2710.02 490.2 2685.62 490.2Z" fill="#2ED6B0"/>
<path d="M2319.36 483.6L2195.76 192H2294.76L2378.76 435H2335.56L2419.56 192H2516.76L2393.16 483.6H2319.36Z" fill="#2ED6B0"/>
<path d="M1992.52 489.6C1965.72 489.6 1941.72 483 1920.52 469.8C1899.72 456.6 1883.12 438.6 1870.72 415.8C1858.72 393 1852.72 367 1852.72 337.8C1852.72 308.6 1858.72 282.6 1870.72 259.8C1883.12 237 1899.72 219 1920.52 205.8C1941.72 192.6 1965.72 186 1992.52 186C2012.12 186 2029.72 189.8 2045.32 197.4C2061.32 205 2074.32 215.6 2084.32 229.2C2094.32 242.4 2099.92 257.6 2101.12 274.8V400.8C2099.92 418 2094.32 433.4 2084.32 447C2074.72 460.2 2061.92 470.6 2045.92 478.2C2029.92 485.8 2012.12 489.6 1992.52 489.6ZM2011.12 406.8C2030.72 406.8 2046.52 400.4 2058.52 387.6C2070.52 374.4 2076.52 357.8 2076.52 337.8C2076.52 324.2 2073.72 312.2 2068.12 301.8C2062.92 291.4 2055.32 283.4 2045.32 277.8C2035.72 271.8 2024.52 268.8 2011.72 268.8C1998.92 268.8 1987.52 271.8 1977.52 277.8C1967.92 283.4 1960.12 291.4 1954.12 301.8C1948.52 312.2 1945.72 324.2 1945.72 337.8C1945.72 351 1948.52 362.8 1954.12 373.2C1959.72 383.6 1967.52 391.8 1977.52 397.8C1987.52 403.8 1998.72 406.8 2011.12 406.8ZM2072.92 483.6V405L2086.72 334.2L2072.92 263.4V192H2162.92V483.6H2072.92Z" fill="#2ED6B0"/>
<path d="M1421.05 483.6L1284.85 60H1378.45L1478.05 385.8H1441.45L1538.65 60H1612.45L1709.65 385.8H1673.65L1772.65 60H1865.65L1729.45 483.6H1655.65L1557.85 157.8H1592.65L1494.85 483.6H1421.05Z" fill="#2ED6B0"/>
<path d="M1150.6 483.6V192H1242.4V483.6H1150.6ZM1196.8 151.8C1182.4 151.8 1170.4 147 1160.8 137.4C1151.6 127.4 1147 115.4 1147 101.4C1147 87 1151.6 75 1160.8 65.4C1170.4 55.8 1182.4 51 1196.8 51C1211.2 51 1223 55.8 1232.2 65.4C1241.4 75 1246 87 1246 101.4C1246 115.4 1241.4 127.4 1232.2 137.4C1223 147 1211.2 151.8 1196.8 151.8Z" fill="#0093D0"/>
<path d="M879.6 483.6V66H973.8V483.6H879.6ZM747 142.2V60H1106.4V142.2H747Z" fill="#0093D0"/>
<path d="M879.6 464.831C1366.35 324.226 2339.85 520.861 2826.6 394V535.662C2339.85 591.692 1366.35 395.057 879.6 535.662V464.831Z" fill="url(#paint1_linear_145_2)"/>
<defs>
<linearGradient id="paint0_linear_145_2" x1="322" y1="132.5" x2="328" y2="322.5" gradientUnits="userSpaceOnUse">
<stop stop-color="#0093D0"/>
<stop offset="0.931" stop-color="#2ED6B0"/>
</linearGradient>
<linearGradient id="paint1_linear_145_2" x1="911.518" y1="469.392" x2="2826.6" y2="469.698" gradientUnits="userSpaceOnUse">
<stop offset="0.143941" stop-color="#0093D0"/>
<stop offset="0.269649" stop-color="#2ED6B0"/>
<stop offset="0.9536" stop-color="#2ED6B0"/>
</linearGradient>
<clipPath id="clip0_145_2">
<rect width="595" height="595" fill="white"/>
</clipPath>
</defs>
</svg>
