<svg width="2080" height="495" viewBox="0 0 2080 495" fill="none" xmlns="http://www.w3.org/2000/svg">
<path d="M1938.62 439.2C1907.02 439.2 1878.82 432.8 1854.02 420C1829.62 406.8 1810.42 388.6 1796.42 365.4C1782.42 342.2 1775.42 316 1775.42 286.8C1775.42 257.6 1782.22 231.6 1795.82 208.8C1809.82 185.6 1828.62 167.4 1852.22 154.2C1875.82 141 1902.42 134.4 1932.02 134.4C1960.82 134.4 1986.22 140.6 2008.22 153C2030.22 165.4 2047.42 182.6 2059.82 204.6C2072.62 226.6 2079.02 251.8 2079.02 280.2C2079.02 285.4 2078.62 291 2077.82 297C2077.42 302.6 2076.42 309.2 2074.82 316.8L1823.42 317.4V254.4L2035.82 253.8L1996.22 280.2C1995.82 263.4 1993.22 249.6 1988.42 238.8C1983.62 227.6 1976.42 219.2 1966.82 213.6C1957.62 207.6 1946.22 204.6 1932.62 204.6C1918.22 204.6 1905.62 208 1894.82 214.8C1884.42 221.2 1876.22 230.4 1870.22 242.4C1864.62 254.4 1861.82 269 1861.82 286.2C1861.82 303.4 1864.82 318.2 1870.82 330.6C1877.22 342.6 1886.02 352 1897.22 358.8C1908.82 365.2 1922.42 368.4 1938.02 368.4C1952.42 368.4 1987 362 1999.5 362C2012 362 2004.62 376.4 2019.5 372.5C2034.38 368.6 2058.02 388.8 2058.02 388.8C2043.62 405.6 2026.22 418.2 2005.82 426.6C1985.42 435 1963.02 439.2 1938.62 439.2Z" fill="#2ED6B0"/>
<path d="M1572.36 432.6L1448.76 141H1547.76L1631.76 384H1588.56L1672.56 141H1769.76L1646.16 432.6H1572.36Z" fill="#2ED6B0"/>
<path d="M1245.52 438.6C1218.72 438.6 1194.72 432 1173.52 418.8C1152.72 405.6 1136.12 387.6 1123.72 364.8C1111.72 342 1105.72 316 1105.72 286.8C1105.72 257.6 1111.72 231.6 1123.72 208.8C1136.12 186 1152.72 168 1173.52 154.8C1194.72 141.6 1218.72 135 1245.52 135C1265.12 135 1282.72 138.8 1298.32 146.4C1314.32 154 1327.32 164.6 1337.32 178.2C1347.32 191.4 1352.92 206.6 1354.12 223.8V349.8C1352.92 367 1347.32 382.4 1337.32 396C1327.72 409.2 1314.92 419.6 1298.92 427.2C1282.92 434.8 1265.12 438.6 1245.52 438.6ZM1264.12 355.8C1283.72 355.8 1299.52 349.4 1311.52 336.6C1323.52 323.4 1329.52 306.8 1329.52 286.8C1329.52 273.2 1326.72 261.2 1321.12 250.8C1315.92 240.4 1308.32 232.4 1298.32 226.8C1288.72 220.8 1277.52 217.8 1264.72 217.8C1251.92 217.8 1240.52 220.8 1230.52 226.8C1220.92 232.4 1213.12 240.4 1207.12 250.8C1201.52 261.2 1198.72 273.2 1198.72 286.8C1198.72 300 1201.52 311.8 1207.12 322.2C1212.72 332.6 1220.52 340.8 1230.52 346.8C1240.52 352.8 1251.72 355.8 1264.12 355.8ZM1325.92 432.6V354L1339.72 283.2L1325.92 212.4V141H1415.92V432.6H1325.92Z" fill="#2ED6B0"/>
<path d="M674.049 432.6L537.849 9H631.449L731.049 334.8H694.449L791.649 9H865.449L962.649 334.8H926.649L1025.65 9H1118.65L982.449 432.6H908.649L810.849 106.8H845.649L747.849 432.6H674.049Z" fill="#2ED6B0"/>
<path d="M403.603 432.6V141H495.403V432.6H403.603ZM449.803 100.8C435.403 100.8 423.403 96 413.803 86.4C404.603 76.4 400.003 64.4 400.003 50.4C400.003 36 404.603 24 413.803 14.4C423.403 4.8 435.403 0 449.803 0C464.203 0 476.003 4.8 485.203 14.4C494.403 24 499.003 36 499.003 50.4C499.003 64.4 494.403 76.4 485.203 86.4C476.003 96 464.203 100.8 449.803 100.8Z" fill="#0093D0"/>
<path d="M132.6 432.6V15H226.8V432.6H132.6ZM0 91.2V9H359.4V91.2H0Z" fill="#0093D0"/>
<path d="M132.6 413.831C619.35 273.226 1592.85 469.861 2079.6 343V484.662C1592.85 540.692 619.35 344.057 132.6 484.662V413.831Z" fill="url(#paint0_linear_145_11)"/>
<defs>
<linearGradient id="paint0_linear_145_11" x1="164.518" y1="418.392" x2="2079.6" y2="418.698" gradientUnits="userSpaceOnUse">
<stop offset="0.143941" stop-color="#0093D0"/>
<stop offset="0.269649" stop-color="#2ED6B0"/>
<stop offset="0.9536" stop-color="#2ED6B0"/>
</linearGradient>
</defs>
</svg>
